# xmcd CD database file
#
# Track frame offsets:
#	150
#	49337
#	91187
#	117212
#	184992
#	238610
#	275547
#
# Disc length: 4473 seconds
#
# Revision: 0
# Processed by: cddbd v1.5.1PL0 Copyright (c) Steve Scherf et al.
# Submitted via: CDex 1.51
#
DISCID=5d117707
DTITLE=Sonny Rollins - Milestone Jazzstars In Concert [CD1]
DYEAR=1978
DGENRE=Jazz
TTITLE0=The Cutting Edge
TTITLE1=Alone Together
TTITLE2=Continuum
TTITLE3=Nubia
TTITLE4=Once I Loved
TTITLE5=Will You Still Be Mine
TTITLE6=Nubia (Alternate Take)
EXTD=YEAR: 1978
EXTT0=
EXTT1=
EXTT2=
EXTT3=
EXTT4=
EXTT5=
EXTT6=
PLAYORDER=
